<?xml version="1.0" standalone="no"?>
<!DOCTYPE svg PUBLIC "-//W3C//DTD SVG 1.1//EN" "http://www.w3.org/Graphics/SVG/1.1/DTD/svg11.dtd" >
<svg xmlns="http://www.w3.org/2000/svg">
<metadata>Generated by IcoMoon</metadata>
<defs>
<font id="icomoon" horiz-adv-x="1024">
<font-face units-per-em="1024" ascent="960" descent="-64" />
<missing-glyph horiz-adv-x="1024" />
<glyph unicode="&#x20;" horiz-adv-x="512" d="" />
<glyph unicode="&#xe900;" glyph-name="版本" d="M505.932 26.874l461.467 175.639c21.845 8.277 46.080-3.499 54.101-26.368 7.936-22.955-3.328-48.213-25.259-56.576l-475.307-180.907c-7.265-2.77-14.774-3.321-21.86-1.988-5.471 0.215-10.995 1.553-16.276 4.129l-458.411 223.488c-21.163 10.325-30.293 36.523-20.395 58.624 9.813 22.101 34.901 31.659 56.064 21.333l445.874-217.376zM505.932 236.947l461.467 175.639c21.845 8.277 46.080-3.499 54.101-26.368 7.936-22.955-3.328-48.213-25.259-56.576l-475.307-180.907c-7.265-2.77-14.774-3.321-21.86-1.988-5.471 0.215-10.995 1.553-16.276 4.129l-458.411 223.488c-21.163 10.325-30.293 36.523-20.395 58.624 9.813 22.101 34.901 31.659 56.064 21.333l445.874-217.376zM470.768 952.917c10.581 4.693 21.845 7.083 33.28 7.083 13.739 0 27.648-3.413 40.533-10.155l426.069-223.403c44.032-23.211 64.171-78.251 44.8-122.965-8.619-19.968-24.064-35.328-43.605-43.349l-410.368-168.277c-20.821-8.533-44.373-7.851-65.877 1.621l-436.651 199.765c-45.397 20.053-68.949 73.813-52.565 120.064 7.595 21.589 23.125 38.656 43.264 47.701l421.12 191.915zM79.088 674.731l446.123-197.632 410.368 168.192-425.899 223.403-430.592-193.963z" />
<glyph unicode="&#xe901;" glyph-name="保存" d="M296.431 959.991c0.494 0.006 0.989 0.009 1.485 0.009h428.203c0.496 0 0.991-0.003 1.485-0.009h178.261c65.109 0 118.101-52.992 118.101-118.187v-787.627c0-65.195-52.992-118.187-118.101-118.187h-787.712c-65.195 0-118.187 52.992-118.187 118.187v787.627c0 65.195 52.992 118.187 118.187 118.187h178.278zM180.276 881.229h-62.124c-21.675 0-39.424-17.664-39.424-39.424v-787.627c0-21.76 17.749-39.424 39.424-39.424h787.712c21.675 0 39.339 17.664 39.339 39.424v787.627c0 21.76-17.664 39.424-39.339 39.424h-62.107c6.181-14.944 9.593-31.312 9.593-48.461v-342.869c0-70.144-57.088-127.232-127.232-127.232h-428.203c-70.144 0-127.232 57.088-127.232 127.232v342.869c0 17.148 3.412 33.516 9.593 48.461zM297.916 874.667c-23.125 0-41.899-18.859-41.899-41.899v-342.869c0-23.040 18.773-41.899 41.899-41.899h428.203c23.040 0 41.899 18.859 41.899 41.899v342.869c0 23.040-18.859 41.899-41.899 41.899h-428.203zM704.99 763.75v-195.669c0-16.64-13.483-30.123-30.208-30.123h-24.917c-16.725 0-30.208 13.483-30.208 30.123v195.669c0 16.64 13.483 30.208 30.208 30.208h24.917c16.725 0 30.208-13.568 30.208-30.208z" />
<glyph unicode="&#xe902;" glyph-name="编辑" d="M827.051-64h-630.187c-108.544 0-196.864 88.32-196.864 196.949v630.101c0 108.629 88.32 196.949 196.864 196.949h494.421c21.76 0 39.339-17.579 39.339-39.424 0-21.76-17.579-39.339-39.339-39.339h-494.421c-65.109 0-118.101-52.992-118.101-118.187v-630.101c0-65.195 52.992-118.187 118.101-118.187h630.187c65.195 0 118.187 52.992 118.187 118.187v331.861c0 21.76 17.579 39.424 39.339 39.424s39.424-17.664 39.424-39.424v-331.861c0-108.629-88.405-196.949-196.949-196.949zM773.547 863.061c14.507 14.763 34.133 22.869 55.467 22.869 24.235 0 48.469-10.581 66.475-29.013l45.739-47.189c18.005-18.432 28.245-43.264 28.245-68.181 0-21.931-7.851-42.155-22.272-57.088l-484.864-498.261c-1.536-1.621-3.669-2.389-5.717-2.389-0.256 0-0.341 0.256-0.683 0.256l-181.333-50.859c-2.645-0.683-5.376-1.024-8.107-1.024-8.363 0-16.043 3.243-21.931 9.216-7.936 8.277-10.923 20.053-7.936 30.891l49.835 187.819c0.256 1.024 0.939 1.877 1.536 2.731 0.341 0.597 0.171 1.365 0.768 1.792l484.779 498.432zM773.461 765.355l78.165-81.493 48.128 49.493c3.413 3.413 5.205 8.192 5.205 13.568 0 6.485-2.645 12.971-7.509 17.835l-45.739 47.275c-8.704 8.789-23.211 9.984-30.72 2.219l-47.531-48.896zM374.187 354.987l78.848-80.811 349.184 358.912-78.080 81.579-349.952-359.68zM335.701 304.64l-25.259-95.403 92.843 26.027-67.584 69.376z" />
<glyph unicode="&#xe903;" glyph-name="驳回" d="M212.907 627.2h251.733c24.742 0 44.8-20.058 44.8-44.8s-20.058-44.8-44.8-44.8h-251.733c-24.742 0-44.8 20.058-44.8 44.8s20.058 44.8 44.8 44.8zM212.907 796.16h424.96c24.742 0 44.8-20.058 44.8-44.8s-20.058-44.8-44.8-44.8h-424.96c-24.742 0-44.8 20.058-44.8 44.8s20.058 44.8 44.8 44.8zM249.583 21.333c23.564 0 42.667-19.103 42.667-42.667s-19.103-42.667-42.667-42.667h-121.583c-70.692 0-128 57.308-128 128v768c0 70.692 57.308 128 128 128h611.556c70.692 0 128-57.308 128-128v-171.125c0-23.564-19.103-42.667-42.667-42.667s-42.667 19.103-42.667 42.667v171.125c0 23.564-19.103 42.667-42.667 42.667h-611.556c-23.564 0-42.667-19.103-42.667-42.667v-768c0-23.564 19.103-42.667 42.667-42.667h121.583zM730.027 533.333c162.357 0 293.973-131.616 293.973-293.973s-131.616-293.973-293.973-293.973c-162.357 0-293.973 131.616-293.973 293.973s131.616 293.973 293.973 293.973zM730.027 12.021c120.040 0.502 217.825 96.549 220.48 216.56 1.592 89.515-51.106 171.105-133.355 206.47s-177.717 17.481-241.589-45.256c-63.872-62.737-83.465-157.869-49.581-240.738s114.516-137.022 204.045-137.036zM640 277.333h170.667c23.564 0 42.667-19.103 42.667-42.667s-19.103-42.667-42.667-42.667h-170.667c-23.564 0-42.667 19.103-42.667 42.667s19.103 42.667 42.667 42.667z" />
<glyph unicode="&#xe904;" glyph-name="查看" d="M472.994 487.006v-131.703c0-21.504-17.408-38.997-38.912-38.997h-7.509c-21.504 0-38.912 17.493-38.912 38.997v131.703h-131.703c-21.504 0-38.997 17.408-38.997 38.912v7.509c0 21.504 17.493 38.912 38.997 38.912h131.703v131.721c0 21.504 17.408 38.912 38.912 38.912h7.509c21.504 0 38.912-17.408 38.912-38.912v-131.721h131.721c21.504 0 38.912-17.408 38.912-38.912v-7.509c0-21.504-17.408-38.912-38.912-38.912h-131.721zM761.973 257.708c2.232-1.516 4.352-3.265 6.325-5.249l243.115-243.115c16.811-16.725 16.811-43.947 0-60.757s-44.032-16.811-60.757 0l-243.115 243.115c-1.984 1.974-3.735 4.095-5.25 6.327-74.171-60.918-169.096-97.489-272.552-97.489-237.312 0-429.739 192.427-429.739 429.739s192.427 429.739 429.739 429.739c237.312 0 429.739-192.427 429.739-429.739 0-103.465-36.577-198.397-97.504-272.571zM429.739 186.47c189.867 0 343.808 153.941 343.808 343.808s-153.941 343.808-343.808 343.808c-189.867 0-343.808-153.941-343.808-343.808s153.941-343.808 343.808-343.808z" />
<glyph unicode="&#xe905;" glyph-name="导出" d="M548.642 347.229l184.141 183.518c17.408 17.323 45.483 17.323 62.891 0 17.323-17.323 17.323-45.312 0-62.635l-248.697-247.856c-1.030-1.281-2.141-2.519-3.335-3.706-8.72-8.72-20.185-13.050-31.632-12.991-11.458-0.059-22.923 4.272-31.643 12.991-1.286 1.286-2.477 2.632-3.573 4.027l-248.459 247.536c-17.323 17.323-17.323 45.312 0 62.635 17.408 17.323 45.568 17.323 62.891 0l172.083-171.501v569.138c0 17.469 14.080 31.599 31.488 31.599h22.357c17.408 0 31.488-14.129 31.488-31.599v-581.155zM917.12-64h-810.155c-61.013 0-106.923 30.208-106.923 70.315v404.736c0 20.224 17.579 36.608 39.339 36.608s39.424-16.384 39.424-36.608v-396.8c5.12-2.304 14.933-4.949 28.16-4.949h810.155c13.227 0 23.040 2.645 28.075 4.949v396.8c0 20.224 17.664 36.608 39.424 36.608s39.424-16.384 39.424-36.608v-404.736c0-40.107-45.995-70.315-106.923-70.315z" />
<glyph unicode="&#xe906;" glyph-name="导入" d="M475.383 816.342l-184.149-183.527c-17.408-17.323-45.483-17.323-62.891 0-17.323 17.323-17.323 45.312 0 62.635l248.74 247.899c1.020 1.266 2.12 2.489 3.3 3.663 8.718 8.718 20.182 13.049 31.628 12.991 11.456 0.057 22.92-4.273 31.639-12.991 1.274-1.274 2.455-2.606 3.542-3.988l248.499-247.575c17.323-17.323 17.323-45.312 0-62.635-17.408-17.323-45.568-17.323-62.891 0l-172.083 171.501v-569.249c0-17.408-14.080-31.488-31.488-31.488h-22.357c-17.408 0-31.488 14.080-31.488 31.488v581.274zM917.12-64h-810.155c-61.013 0-106.923 30.208-106.923 70.315v404.736c0 20.224 17.579 36.608 39.339 36.608s39.424-16.384 39.424-36.608v-396.8c5.12-2.304 14.933-4.949 28.16-4.949h810.155c13.227 0 23.040 2.645 28.075 4.949v396.8c0 20.224 17.664 36.608 39.424 36.608s39.424-16.384 39.424-36.608v-404.736c0-40.107-45.995-70.315-106.923-70.315z" />
<glyph unicode="&#xe907;" glyph-name="返回" d="M227.321 704h423.398c62.313 0 127.294-9.532 194.85-42.052 110.984-53.426 178.432-154.006 178.432-306.383 0-158.38-74.324-256.533-194.163-301.552-59.191-22.236-115.33-28.206-173.119-27.029-4.39 0.096-4.39 0.096-6 0.119h-611.334c-21.752 0-39.385 19.103-39.385 42.667s17.633 42.667 39.385 42.667h611.334c3.396-0.041 3.396-0.041 7.481-0.134 49.299-1.004 97.291 4.099 145.831 22.334 89.958 33.794 141.2 101.465 141.2 220.928 0 116.781-47.778 188.028-131.649 228.402-55.181 26.563-110.652 34.7-162.864 34.7h-434.698l86.075-111.060c15.53-20.038 12.262-49.179-7.299-65.087s-48.008-12.561-63.538 7.477l-136.12 175.631c-13.124 16.934-13.068 40.916 0.136 57.785l136.12 173.906c15.624 19.961 44.087 23.168 63.573 7.163s22.617-45.161 6.993-65.123c-17.518-22.38-21.509-27.48-74.639-95.359z" />
<glyph unicode="&#xe908;" glyph-name="附件" d="M961.293 814.014c-83.215 80.87-218.134 80.87-301.351 0l-391.755-380.715c-49.929-48.522-49.929-127.193 0-175.715s130.881-48.522 180.811 0l301.351 292.859c16.644 16.175 16.644 42.397 0 58.572s-43.627 16.175-60.27 0l-301.351-292.859c-16.644-16.175-43.627-16.175-60.27 0s-16.644 42.397 0 58.572l391.755 380.715c49.929 48.522 130.881 48.522 180.811 0s49.929-127.193 0-175.715l-452.026-439.287c-83.215-80.87-218.134-80.87-301.351 0s-83.215 211.987 0 292.859l361.621 351.429c16.644 16.175 16.644 42.397 0 58.572s-43.627 16.175-60.27 0l-361.621-351.43c-116.503-113.219-116.501-296.783 0-410.002s305.389-113.219 421.891 0l452.026 439.287c83.215 80.872 83.215 211.988 0 292.86z" />
<glyph unicode="&#xe909;" glyph-name="关闭" d="M512 387.66l-120.68-120.68c-16.654-16.654-43.686-16.654-60.34 0s-16.654 43.686 0 60.34l120.68 120.68-120.68 120.68c-16.654 16.654-16.654 43.686 0 60.34s43.686 16.654 60.34 0l120.68-120.68 120.68 120.68c16.654 16.654 43.686 16.654 60.34 0s16.654-43.686 0-60.34l-120.68-120.68 120.68-120.68c16.654-16.654 16.654-43.686 0-60.34s-43.686-16.654-60.34 0l-120.68 120.68zM874.039 810.039c199.966-199.966 199.966-524.111 0-724.077s-524.111-199.966-724.077 0c-199.966 199.966-199.966 524.111 0 724.077s524.111 199.966 724.077 0zM210.301 146.301c166.598-166.598 436.8-166.598 603.398 0s166.598 436.8 0 603.398c-166.598 166.598-436.8 166.598-603.398 0s-166.598-436.8 0-603.398z" />
<glyph unicode="&#xe90a;" glyph-name="禁用@2x" d="M0 448c0 282.795 229.205 512 512 512s512-229.205 512-512c0-282.795-229.205-512-512-512s-512 229.205-512 512zM78.763 448c0-239.275 193.963-433.237 433.237-433.237s433.237 193.963 433.237 433.237c0 239.275-193.963 433.237-433.237 433.237s-433.237-193.963-433.237-433.237zM208.64 490.667h606.805c20.907 0 37.888-19.115 37.888-42.667 0-23.637-16.981-42.667-37.888-42.667h-606.805c-20.992 0-37.973 19.029-37.973 42.667 0 23.552 16.981 42.667 37.973 42.667z" />
<glyph unicode="&#xe90b;" glyph-name="启用" d="M212.193 865.72c19.1 13.801 45.771 9.505 59.572-9.595s9.505-45.771-9.595-59.572c-110.267-79.674-176.836-206.947-176.836-345.411 0-235.284 191.012-426.043 426.667-426.043s426.667 190.759 426.667 426.043c0 138.936-67.027 266.592-177.922 346.193-19.143 13.741-23.522 40.399-9.781 59.542s40.399 23.522 59.542 9.781c132.988-95.46 213.495-248.788 213.495-415.516 0-282.438-229.243-511.376-512-511.376s-512 228.938-512 511.376c0 166.161 79.957 319.031 212.193 414.578zM469.333 917.333c0 23.564 19.103 42.667 42.667 42.667s42.667-19.103 42.667-42.667v-429.65c0-23.564-19.103-42.667-42.667-42.667s-42.667 19.103-42.667 42.667v429.65z" />
<glyph unicode="&#xe90c;" glyph-name="日志" d="M213.333 960h611.556c70.692 0 128-57.308 128-128v-768c0-70.692-57.308-128-128-128h-611.556c-70.692 0-128 57.308-128 128v768c0 70.692 57.308 128 128 128zM213.333 874.667c-23.564 0-42.667-19.103-42.667-42.667v-768c0-23.564 19.103-42.667 42.667-42.667h611.556c23.564 0 42.667 19.103 42.667 42.667v768c0 23.564-19.103 42.667-42.667 42.667h-611.556zM298.667 490.667c-23.564 0-42.667 19.103-42.667 42.667s19.103 42.667 42.667 42.667h426.667c23.564 0 42.667-19.103 42.667-42.667s-19.103-42.667-42.667-42.667h-426.667zM298.667 320c-23.564 0-42.667 19.103-42.667 42.667s19.103 42.667 42.667 42.667h426.667c23.564 0 42.667-19.103 42.667-42.667s-19.103-42.667-42.667-42.667h-426.667zM298.667 149.333c-23.564 0-42.667 19.103-42.667 42.667s19.103 42.667 42.667 42.667h426.667c23.564 0 42.667-19.103 42.667-42.667s-19.103-42.667-42.667-42.667h-426.667z" />
<glyph unicode="&#xe90d;" glyph-name="删除" d="M983.091 718.831h-942.165c-22.613 0-40.96 18.347-40.96 40.875 0 22.613 18.347 40.96 40.96 40.96h942.165c22.613 0 40.875-18.347 40.875-40.96 0-22.528-18.261-40.875-40.875-40.875zM687.189 878.174h-350.379c-21.077 0-38.144 17.067-38.144 38.144v5.547c0 21.077 17.067 38.144 38.144 38.144h350.379c21.077 0 38.144-17.067 38.144-38.144v-5.547c0-21.077-17.067-38.144-38.144-38.144zM804.548-64h-585.131c-50.432 0-91.392 40.96-91.392 91.392v603.989c0 22.699 19.029 41.045 42.667 41.045 23.552 0 42.667-18.347 42.667-41.045v-603.989c0-5.717 3.584-9.301 6.059-9.301h585.131c2.475 0 6.144 3.584 6.144 9.301v603.989c0 22.699 19.029 41.045 42.667 41.045 23.552 0 42.667-18.347 42.667-41.045v-603.989c0-50.432-41.045-91.392-91.477-91.392zM464.862 576.299v-406.016c0-23.040-18.688-41.728-41.728-41.728h-1.877c-23.040 0-41.728 18.688-41.728 41.728v406.016c0 23.040 18.688 41.728 41.728 41.728h1.877c23.040 0 41.728-18.688 41.728-41.728zM633.105 576.299v-406.016c0-23.040-18.688-41.728-41.728-41.728h-1.877c-23.040 0-41.728 18.688-41.728 41.728v406.016c0 23.040 18.688 41.728 41.728 41.728h1.877c23.040 0 41.728-18.688 41.728-41.728z" />
<glyph unicode="&#xe90e;" glyph-name="上传" d="M438.056 475.009c-19.331-14.392-33.032-24.593-62.207-46.315l-47.15-35.104c-20.811-15.494-50.241-11.184-65.736 9.626s-11.184 50.241 9.626 65.736l188.598 140.418c16.583 12.347 39.29 12.401 55.931 0.132l190.469-140.418c20.884-15.396 25.332-44.806 9.936-65.689s-44.806-25.332-65.689-9.936l-116.44 85.842 5.271-496.201c0.273-25.74-20.537-46.825-46.48-47.097s-47.197 20.375-47.47 46.114l-5.262 495.422zM172.179 686.761c84.299 350.343 580.094 378.192 665.162-0.462 303.604-139.486 211.959-520.080-95.948-486.643-23.469 2.549-40.586 25.215-38.232 50.628s23.287 43.947 46.756 41.398c216.023-23.459 270.895 224.224 35.761 317.286l-5.070 2.007c-11.117 4.4-19.122 14.297-21.101 26.088v0l-1.187 7.070c-51.959 309.587-457.449 285.56-507.564-0.354l-1.24-7.074c-2.080-11.87-10.265-21.762-21.535-26.029v0l-5.088-1.926c-109.852-41.589-152.727-118.351-132.567-196.143 19.763-76.262 94.303-130.204 185.185-121.833 23.502 2.165 44.174-16.71 46.173-42.158s-15.432-47.832-38.934-49.997c-131.134-12.079-243.655 69.35-274.662 189-31.333 120.907 29.416 238.762 164.091 299.142z" />
<glyph unicode="&#xe90f;" glyph-name="设置" d="M60.070 488.57c-57.443 32.627-77.124 104.889-43.959 161.401l63.415 108.058c33.164 56.512 106.616 75.875 164.059 43.247l58.057-32.976c8.746 5.144 17.701 9.966 26.845 14.454v59.092c0 65.255 53.77 118.154 120.099 118.154h126.829c66.329 0 120.099-52.899 120.099-118.154v-59.092c9.144-4.488 18.099-9.31 26.845-14.454l58.057 32.976c57.443 32.627 130.894 13.265 164.059-43.247l63.415-108.058c33.164-56.512 13.483-128.774-43.959-161.401-35.463-21.375-53.243-31.474-53.34-30.297-0.145 1.765 0.145-6.843 0.145-10.272s-0.291-10.272-0.145-10.272c0.097 0 17.877-10.099 53.34-30.297 57.443-32.627 77.124-104.889 43.959-161.401l-63.415-108.058c-33.164-56.512-106.616-75.875-164.059-43.247l-58.057 32.976c-8.746-5.144-17.701-9.966-26.845-14.454v-59.092c0-65.255-53.77-118.154-120.099-118.154h-126.829c-66.329 0-120.099 52.899-120.099 118.154v59.092c-9.144 4.488-18.099 9.31-26.845 14.454l-58.057-32.976c-57.443-32.627-130.894-13.265-164.059 43.247l-63.415 108.058c-33.164 56.512-13.483 128.774 43.959 161.401 35.56 20.198 53.34 30.297 53.34 30.297s-0.145 6.843-0.145 10.272c0 3.429 0.291 13.691 0.145 10.272-0.097-2.279-17.877 7.82-53.34 30.297zM325.425 689.764l-20.823-14.1-101.051 57.397c-19.148 10.876-43.631 4.422-54.686-14.416l-63.415-108.058c-11.055-18.837-4.494-42.925 14.653-53.8l97.183-55.2-2.54-25.281c-0.941-9.362-1.414-18.804-1.414-28.306s0.474-18.943 1.414-28.306l2.54-25.281-97.183-55.2c-19.148-10.876-25.708-34.963-14.653-53.8l63.415-108.058c11.055-18.837 35.539-25.292 54.686-14.416l101.051 57.397 20.823-14.1c18.265-12.369 37.882-22.899 58.533-31.39l24.595-10.113v-110.579c0-21.752 17.923-39.385 40.033-39.385h126.829c22.11 0 40.033 17.633 40.033 39.385v110.579l24.595 10.113c20.651 8.492 40.267 19.022 58.533 31.39l20.823 14.1 101.051-57.397c19.148-10.876 43.631-4.422 54.686 14.416l63.415 108.058c11.055 18.837 4.494 42.925-14.653 53.8l-97.183 55.2 2.54 25.281c0.941 9.362 1.414 18.804 1.414 28.306s-0.474 18.943-1.414 28.306l-2.54 25.281 97.183 55.2c19.148 10.876 25.708 34.963 14.653 53.8l-63.415 108.058c-11.055 18.837-35.539 25.292-54.686 14.416l-101.051-57.397-20.823 14.1c-18.265 12.369-37.882 22.899-58.533 31.39l-24.595 10.113v110.579c0 21.752-17.923 39.385-40.033 39.385h-126.829c-22.11 0-40.033-17.633-40.033-39.385v-110.579l-24.595-10.113c-20.651-8.492-40.267-19.022-58.533-31.39zM520.345 243.834c-108.149 0-195.821 87.672-195.821 195.821s87.672 195.821 195.821 195.821c108.149 0 195.821-87.672 195.821-195.821s-87.672-195.821-195.821-195.821zM520.345 322.163c64.889 0 117.493 52.603 117.493 117.493s-52.603 117.493-117.493 117.493c-64.889 0-117.493-52.603-117.493-117.493s52.603-117.493 117.493-117.493z" />
<glyph unicode="&#xe910;" glyph-name="审批" d="M630.154 251.077h275.692c65.255 0 118.154-52.899 118.154-118.154v-78.769c0-65.255-52.899-118.154-118.154-118.154h-787.692c-65.255 0-118.154 52.899-118.154 118.154v78.769c0 65.255 52.899 118.154 118.154 118.154h275.692v184.068c-94.776 44.944-157.538 141.085-157.538 249.163 0 152.261 123.432 275.692 275.692 275.692s275.692-123.432 275.692-275.692c0-108.077-62.763-204.219-157.538-249.163v-184.068zM577.644 498.58v0c78.031 27.58 131.279 101.597 131.279 185.728 0 108.758-88.165 196.923-196.923 196.923s-196.923-88.165-196.923-196.923c0-84.131 53.247-158.148 131.279-185.728v0 0c15.738-5.562 26.26-20.442 26.26-37.133v-246.472c0-23.564-19.103-42.667-42.667-42.667h-311.795c-21.752 0-39.385-17.633-39.385-39.385v-78.769c0-21.752 17.633-39.385 39.385-39.385h787.692c21.752 0 39.385 17.633 39.385 39.385v78.769c0 21.752-17.633 39.385-39.385 39.385-136.762 0-239.333 0-307.714 0-1.36 0-2.72 0-4.080 0v0c-23.564 0-42.667 19.103-42.667 42.667v246.472c0 16.692 10.522 31.571 26.26 37.133z" />
<glyph unicode="&#xe911;" glyph-name="审批通过" d="M688.508 191.332l133.63 123.481c13.8 12.989 35.517 12.33 48.506-1.47s12.33-35.517-1.47-48.506l-150.906-142.087c-1.225-1.216-2.531-2.329-3.904-3.334-6.356-5.535-14.692-8.683-23.532-8.425h0.98c-7.421 0-14.641 2.407-20.578 6.859l-84.272 65.654c-15.153 11.365-18.224 32.862-6.859 48.016s32.862 18.224 48.016 6.859l60.39-47.048zM212.907 627.2h251.733c24.742 0 44.8-20.058 44.8-44.8s-20.058-44.8-44.8-44.8h-251.733c-24.742 0-44.8 20.058-44.8 44.8s20.058 44.8 44.8 44.8zM212.907 796.16h424.96c24.742 0 44.8-20.058 44.8-44.8s-20.058-44.8-44.8-44.8h-424.96c-24.742 0-44.8 20.058-44.8 44.8s20.058 44.8 44.8 44.8zM249.583 21.333c23.564 0 42.667-19.103 42.667-42.667s-19.103-42.667-42.667-42.667h-121.583c-70.692 0-128 57.308-128 128v768c0 70.692 57.308 128 128 128h611.556c70.692 0 128-57.308 128-128v-171.125c0-23.564-19.103-42.667-42.667-42.667s-42.667 19.103-42.667 42.667v171.125c0 23.564-19.103 42.667-42.667 42.667h-611.556c-23.564 0-42.667-19.103-42.667-42.667v-768c0-23.564 19.103-42.667 42.667-42.667h121.583zM730.027 533.333c162.357 0 293.973-131.616 293.973-293.973s-131.616-293.973-293.973-293.973c-162.357 0-293.973 131.616-293.973 293.973s131.616 293.973 293.973 293.973zM730.027 12.021c120.040 0.502 217.825 96.549 220.48 216.56 1.592 89.515-51.106 171.105-133.355 206.47s-177.717 17.481-241.589-45.256c-63.872-62.737-83.465-157.869-49.581-240.738s114.516-137.022 204.045-137.036z" />
<glyph unicode="&#xe912;" glyph-name="刷新" d="M824.901 723.786c-79.055 80.297-188.767 127.148-306.528 127.148-234.237 0-424.123-184.333-424.123-411.72s189.887-411.72 424.123-411.72c164.41 0 311.804 91.612 382.102 232.8 11.326 22.747 39.504 32.275 62.936 21.28s33.247-38.348 21.921-61.096c-85.887-172.498-266.052-284.478-466.96-284.478-286.29 0-518.373 225.296-518.373 503.214s232.084 503.214 518.373 503.214c144.701 0 279.607-57.98 376.309-157.106 22.7 100.145 24.143 106.515 31.217 137.723 6.121 27.004 32.948 45.132 59.919 40.49s43.874-30.296 37.753-57.301l-53.327-235.266c-5.173-22.821-25.425-39.893-48.798-41.136l-242.411-12.888c-27.657-1.47-50.095 19.518-50.116 46.879s22.382 50.733 50.040 52.204l145.942 7.759z" />
<glyph unicode="&#xe913;" glyph-name="搜索" d="M429.739 186.47c-189.867 0-343.808 153.941-343.808 343.808s153.941 343.808 343.808 343.808c189.867 0 343.808-153.941 343.808-343.808s-153.941-343.808-343.808-343.808zM761.973 257.708c60.927 74.173 97.504 169.106 97.504 272.571 0 237.312-192.427 429.739-429.739 429.739s-429.739-192.427-429.739-429.739c0-237.312 192.427-429.739 429.739-429.739 103.456 0 198.382 36.571 272.552 97.489 1.516-2.232 3.266-4.353 5.25-6.327l243.115-243.115c16.725-16.811 43.947-16.811 60.757 0s16.811 44.032 0 60.757l-243.115 243.115c-1.974 1.984-4.094 3.734-6.325 5.249z" />
<glyph unicode="&#xe914;" glyph-name="提交" d="M554.667 558.336v-323.669c0-23.552-19.115-42.667-42.667-42.667s-42.667 19.115-42.667 42.667v323.669l-108.194-108.194c-16.64-16.64-43.691-16.64-60.331 0s-16.64 43.691 0 60.331l180.992 180.992c8.214 8.214 18.897 12.394 29.614 12.54 11.098 0.156 22.269-4.024 30.785-12.54l180.992-180.992c16.64-16.64 16.64-43.691 0-60.331s-43.691-16.64-60.331 0l-108.194 108.194zM512 960c282.795 0 512-229.205 512-512s-229.205-512-512-512c-282.795 0-512 229.205-512 512s229.205 512 512 512zM512 21.333c235.605 0 426.667 191.061 426.667 426.667s-191.061 426.667-426.667 426.667c-235.605 0-426.667-191.061-426.667-426.667s191.061-426.667 426.667-426.667z" />
<glyph unicode="&#xe915;" glyph-name="推送" d="M983.321 87.763l40.62 820.38c0.755 15.347-5.819 29.359-16.608 38.554-14.985 14.769-38.497 17.852-56.967 6.118l-921.822-582.726c-10.242-4.231-18.705-12.622-22.891-23.707-1.923-4.271-3.208-8.806-3.817-13.443l-0.334-1.249c-6.059-22.101 6.827-45.056 28.672-51.115l236.203-65.877c21.845-6.059 44.459 6.912 50.432 29.099l2.901 10.837c6.059 22.187-6.827 45.056-28.672 51.115l-130.642 36.436 653.411 413.051-397.244-547.331c-5.389-7.437-8.325-15.925-8.956-24.476-1.207-4.758-1.699-9.788-1.361-14.956l12.8-188.501c1.792-26.027 23.979-45.653 49.664-43.861s45.056 24.32 43.264 50.347l-12.015 176.943 422.697 582.481-30.097-607.86-245.946 68.622c-21.589 5.973-43.861-6.912-49.835-28.757l-3.157-11.776c-5.973-21.931 6.741-44.544 28.331-50.603l307.371-85.675c21.589-6.059 43.947 6.827 49.835 28.757l1.317 4.783c0.425 1.313 0.794 2.653 1.106 4.017l0.82 2.977c1.573 5.86 1.818 11.769 0.921 17.397z" />
<glyph unicode="&#xe916;" glyph-name="下载" d="M566.073 77.426l97.203 75.336c20.038 15.53 49.179 12.262 65.087-7.299s12.561-48.008-7.477-63.538l-175.631-136.12c-16.934-13.124-40.916-13.068-57.785 0.136l-173.906 136.12c-19.961 15.624-23.168 44.087-7.163 63.573s45.161 22.617 65.123 6.993c23.085-18.069 27.784-21.747 101.963-79.808-0.028 0.682-0.044 1.368-0.050 2.057l-4.101 489.191c-0.25 29.861 20.287 54.306 45.871 54.598s46.527-23.678 46.778-53.54l4.089-487.698zM172.705 691.846c82.794 343.753 580.31 371.211 663.986-0.422 303.786-135.171 213.197-505.21-93.528-472.617-21.819 2.319-37.719 22.793-35.514 45.732s21.681 39.654 43.5 37.335c221.139-23.499 277.789 226.708 37.316 319.838l-3.276 1.269c-11.193 4.335-19.286 14.23-21.315 26.059l-0.761 4.436c-53.017 309.101-466.097 285.15-517.233-0.318l-0.795-4.439c-2.132-11.902-10.402-21.789-21.741-25.989l-3.289-1.218c-112.142-41.543-156.419-119.112-135.558-197.881 20.361-76.881 96.831-131.031 189.752-122.656 21.85 1.969 41.082-15.056 42.955-38.027s-14.321-43.189-36.171-45.158c-130.518-11.763-242.308 67.397-273.043 183.447-31.104 117.444 29.602 232.030 164.715 290.61z" />
<glyph unicode="&#xe917;" glyph-name="新增" d="M554.667 405.333v-170.667c0-23.552-19.115-42.667-42.667-42.667s-42.667 19.115-42.667 42.667v170.667h-170.667c-23.552 0-42.667 19.115-42.667 42.667s19.115 42.667 42.667 42.667h170.667v170.667c0 23.552 19.115 42.667 42.667 42.667s42.667-19.115 42.667-42.667v-170.667h170.667c23.552 0 42.667-19.115 42.667-42.667s-19.115-42.667-42.667-42.667h-170.667zM512 960c282.795 0 512-229.205 512-512s-229.205-512-512-512c-282.795 0-512 229.205-512 512s229.205 512 512 512zM512 21.333c235.605 0 426.667 191.061 426.667 426.667s-191.061 426.667-426.667 426.667c-235.605 0-426.667-191.061-426.667-426.667s191.061-426.667 426.667-426.667z" />
<glyph unicode="&#xe918;" glyph-name="选择" d="M454.096 252.301c-8.348 0.007-16.695 2.987-23.288 8.941-1.187 0.929-2.336 1.93-3.442 3.002-1.333 1.293-2.563 2.652-3.691 4.067l-186.252 186.252c-13.653 13.653-13.653 35.669 0 49.237l11.093 11.093c13.568 13.653 35.669 13.653 49.237 0l159.026-159.026 266.694 274.968c16.384 16.896 43.435 17.323 60.331 0.939s17.323-43.435 0.939-60.331l-297.045-306.261c-9.099-9.431-21.488-13.729-33.601-12.881zM512 960c282.795 0 512-229.205 512-512s-229.205-512-512-512c-282.795 0-512 229.205-512 512s229.205 512 512 512zM512 21.333c235.605 0 426.667 191.061 426.667 426.667s-191.061 426.667-426.667 426.667c-235.605 0-426.667-191.061-426.667-426.667s191.061-426.667 426.667-426.667z" />
<glyph unicode="&#xe919;" glyph-name="工作流" d="M688.782 382.976v0c17.396 60.297 73.129 104.408 139.195 104.408 79.983 0 144.823-64.655 144.823-144.41s-64.839-144.41-144.823-144.41c-30.864 0-59.474 9.628-82.972 26.035-21.833 15.244-39.254 36.342-49.973 61.008l-102.562-85.113c-23.015 15.365-50.692 24.326-80.469 24.326-79.983 0-144.823-64.655-144.823-144.41s64.839-144.41 144.823-144.41c79.983 0 144.823 64.655 144.823 144.41 0 50.064-25.548 94.177-64.354 120.084 22.173-14.803 40.018-35.55 51.242-59.956l101.294 84.060c-37.361 26.087-61.803 69.313-61.85 118.234l-358.81 90.672c-24.215-46.014-72.592-77.403-128.322-77.403-79.983 0-144.823 64.655-144.823 144.41s64.839 144.41 144.823 144.41c26.475 0 51.29-7.084 72.644-19.454l117.213 119.086c13.198-23.249 32.674-42.487 56.132-55.424-44.621 24.607-74.835 72.014-74.835 126.458 0 79.756 64.839 144.41 144.823 144.41s144.823-64.655 144.823-144.41c0-79.756-64.839-144.41-144.823-144.41-25.384 0-49.243 6.512-69.988 17.952l-118.381-120.273c9.464-17.533 15.4-37.239 16.861-58.175l364.127-92.016c-6.806-11.005-12.172-22.989-15.837-35.692zM196.023 434.872c36.356 0 65.829 29.388 65.829 65.641s-29.472 65.641-65.829 65.641c-36.356 0-65.829-29.388-65.829-65.641s29.472-65.641 65.829-65.641zM827.977 277.333c36.356 0 65.829 29.388 65.829 65.641s-29.472 65.641-65.829 65.641c-36.356 0-65.829-29.388-65.829-65.641s29.472-65.641 65.829-65.641zM512 749.949c36.356 0 65.829 29.388 65.829 65.641s-29.472 65.641-65.829 65.641c-36.356 0-65.829-29.388-65.829-65.641s29.472-65.641 65.829-65.641zM512 14.769c-36.356 0-65.829 29.388-65.829 65.641s29.472 65.641 65.829 65.641c36.356 0 65.829-29.388 65.829-65.641s-29.472-65.641-65.829-65.641z" />
<glyph unicode="&#xe91a;" glyph-name="基础设施监控" d="M531.443 3.156h272.203c21.476 0 38.886-17.899 38.886-39.978s-17.41-39.978-38.886-39.978h-622.177c-21.476 0-38.886 17.899-38.886 39.978s17.41 39.978 38.886 39.978h272.203v156.405h-311.089c-78.312 0-142.582 62.597-142.582 140.975v505.688c0 78.378 64.27 140.975 142.582 140.975h725.873c78.275 0 142.582-62.611 142.582-140.975v-221.532c0-22.079-17.41-39.978-38.886-39.978s-38.886 17.899-38.886 39.978v17.463h-300.929c-10.561 0-20.067 6.587-24.030 16.652l-16.854 42.805-83.342-157.263c-11.119-20.981-41.404-17.481-47.714 5.514l-58.622 213.601-69.949-152.176c-9.57-20.82-38.587-20.205-47.314 1.004l-31.525 76.613-42.141-53.701c-4.921-6.271-12.339-9.917-20.176-9.917h-112.896v-284.749c0-33.224 28.538-61.019 64.81-61.019h434.873c21.476 0 38.886-17.899 38.886-39.978s-17.41-39.978-38.886-39.978h-46.013v-156.405zM933.266 655.46v150.765c0 33.203-28.569 61.019-64.81 61.019h-725.873c-36.272 0-64.81-27.795-64.81-61.019v-167.634h100.502l61.544 78.425c12.301 15.675 36.419 12.198 44.052-6.351l25.826-62.763 74.787 162.701c10.24 22.278 41.88 19.565 48.389-4.15l60.149-219.165 79.129 149.315c10.472 19.761 38.581 18.109 46.794-2.751l30.866-78.391h283.456zM842.532 136.416c-100.222 0-181.468 83.528-181.468 186.564s81.246 186.564 181.468 186.564c100.222 0 181.468-83.528 181.468-186.564s-81.246-186.564-181.468-186.564zM842.532 189.721c71.587 0 129.62 59.663 129.62 133.26s-58.033 133.26-129.62 133.26c-71.587 0-129.62-59.663-129.62-133.26s58.033-133.26 129.62-133.26zM842.532 243.025c-42.952 0-77.772 35.798-77.772 79.956s34.82 79.956 77.772 79.956c42.952 0 77.772-35.798 77.772-79.956s-34.82-79.956-77.772-79.956zM842.532 296.329c14.317 0 25.924 11.933 25.924 26.652s-11.607 26.652-25.924 26.652c-14.317 0-25.924-11.933-25.924-26.652s11.607-26.652 25.924-26.652z" />
<glyph unicode="&#xe91b;" glyph-name="其他业务模块" d="M954.511 479.377h-402.109v393.995c0 27.216-22.43 49.279-50.097 49.279h-452.207c-27.668 0-50.097-22.063-50.097-49.279v-888.093c0-27.216 22.43-49.279 50.097-49.279h904.413c27.668 0 50.097 22.063 50.097 49.279v444.82c0 27.216-22.43 49.279-50.097 49.279zM452.207 824.093v-344.716h-352.012v344.716h352.012zM100.195 379.275h352.012v-344.717h-352.012v344.717zM904.413 34.558h-352.012v346.262h352.012v-346.262zM988.642 960c19.528 0 35.358-15.592 35.358-34.826v-314.359c0-19.234-15.83-34.826-35.358-34.826h-319.154c-19.528 0-35.358 15.592-35.358 34.826v314.359c0 19.234 15.83 34.826 35.358 34.826h319.154z" />
<glyph unicode="&#xe91c;" glyph-name="企业知识库" d="M584.543 857.491c6.501 5.885 14.519 10.338 23.647 12.69l144.707 37.289c29.536 7.611 59.518-9.656 66.968-38.567l200.211-776.957c7.45-28.911-10.454-58.518-39.989-66.129l-144.707-37.289c-29.536-7.611-59.518 9.656-66.968 38.567l-183.669 712.759v-689.342c0-29.856-24.725-54.058-55.226-54.058h-149.435c-30.5 0-55.226 24.203-55.226 54.058v802.338c0 29.856 24.725 54.058 55.226 54.058h149.435c28.903 0 52.621-21.735 55.025-49.418zM82.839 622.392h94.209v56.903h-94.209v-56.903zM82.839 565.489v-487.947h94.209v487.947h-94.209zM82.839 736.199h94.209v89.623h-94.209v-89.623zM407.696 622.392h94.209v56.903h-94.209v-56.903zM407.696 565.489v-487.947h94.209v487.947h-94.209zM407.696 736.199h94.209v89.623h-94.209v-89.623zM55.226 906.909h149.435c30.5 0 55.226-24.203 55.226-54.058v-802.338c0-29.856-24.725-54.058-55.226-54.058h-149.435c-30.5 0-55.226 24.203-55.226 54.058v802.338c0 29.856 24.725 54.058 55.226 54.058zM717.791 558.111l124.764-484.169 91.229 23.508-124.764 484.169-91.229-23.508zM672.717 723.42l91.229 23.508-19.36 75.13-91.229-23.508 19.36-75.13zM701.784 613.214l91.229 23.508-14.199 55.103-91.229-23.508 14.199-55.103z" />
<glyph unicode="&#xe91d;" glyph-name="系统接入管理" d="M837.271 146.778v-154.124h-60.235v152.709c-53.75 3.118-96.376 47.694-96.376 102.226v108.251h240.941v-108.251c0-50.388-36.394-92.276-84.329-100.811zM548.141 146.778v-154.124h-60.235v152.709c-53.75 3.118-96.376 47.694-96.376 102.226v108.251h240.941v-108.251c0-50.388-36.394-92.276-84.329-100.811zM259.012 146.778v-154.124h-60.235v152.709c-53.75 3.118-96.376 47.694-96.376 102.226v108.251h240.941v-108.251c0-50.388-36.394-92.276-84.329-100.811zM153.6 304.64v-57.051c0-28.277 22.923-51.2 51.2-51.2h36.141c28.277 0 51.2 22.923 51.2 51.2v57.051h-138.541zM442.729 247.589c0-28.277 22.923-51.2 51.2-51.2h36.141c28.277 0 51.2 22.923 51.2 51.2v57.051h-138.541v-57.051zM731.859 247.589c0-28.277 22.923-51.2 51.2-51.2h36.141c28.277 0 51.2 22.923 51.2 51.2v57.051h-138.541v-57.051zM102.4 678.4h240.941v-276.48h-240.941v276.48zM222.871 908.8c13.307 0 24.094-10.787 24.094-24.094v-206.306h-48.188v206.306c0 13.307 10.787 24.094 24.094 24.094zM391.529 678.4h240.941v-276.48h-240.941v276.48zM512 908.8c13.307 0 24.094-10.787 24.094-24.094v-206.306h-48.188v206.306c0 13.307 10.787 24.094 24.094 24.094zM680.659 678.4h240.941v-276.48h-240.941v276.48zM801.129 908.8c13.307 0 24.094-10.787 24.094-24.094v-206.306h-48.188v206.306c0 13.307 10.787 24.094 24.094 24.094z" />
<glyph unicode="&#xe91e;" glyph-name="系统日志" d="M136.698 181.901h131.249c56.554 0 102.4-45.846 102.4-102.4v-65.297h490.014c15.525 0 28.11 11.671 28.11 26.068v757.496c0 8.445-4.33 15.951-11.043 20.715v-18.171c0-77.623-62.926-140.549-140.549-140.549s-140.549 62.926-140.549 140.549v23.524h-168.659v-23.524c0-77.623-62.926-140.549-140.549-140.549s-140.549 62.926-140.549 140.549v18.171c-6.713-4.764-11.043-12.27-11.043-20.715v-608.428c0-2.547 0.401-5.049 1.168-7.438zM139.281 899.584h75.759v-70.772c0-39.588 32.092-71.68 71.68-71.68s71.68 32.092 71.68 71.68v0 70.772h307.2v-70.772c0-39.588 32.092-71.68 71.68-71.68s71.68 32.092 71.68 71.68v0 70.772h75.759c50.388-10.32 88.081-51.987 88.081-101.817v-757.496c0-57.587-50.341-104.271-112.439-104.271h-501.398c-26.066 0-51.323 8.398-71.449 23.759l-195.324 149.068c-25.953 19.807-40.99 49.342-40.99 80.512v608.428c0 49.831 37.693 91.497 88.081 101.817zM248.525 560.704h526.978c19.436 0 35.191-15.756 35.191-35.191s-15.756-35.191-35.191-35.191h-526.978c-19.436 0-35.191 15.756-35.191 35.191s15.756 35.191 35.191 35.191v0zM248.525 396.478h527.056c19.436 0 35.191-15.756 35.191-35.191s-15.756-35.191-35.191-35.191h-527.056c-19.436 0-35.191 15.756-35.191 35.191s15.756 35.191 35.191 35.191zM286.72 960c22.622 0 40.96-18.338 40.96-40.96v-72.646c0-22.622-18.338-40.96-40.96-40.96s-40.96 18.338-40.96 40.96v72.646c0 22.622 18.338 40.96 40.96 40.96zM737.28 960v0c22.622 0 40.96-18.338 40.96-40.96v-72.646c0-22.622-18.338-40.96-40.96-40.96s-40.96 18.338-40.96 40.96v72.646c0 22.622 18.338 40.96 40.96 40.96v0z" />
<glyph unicode="&#xe91f;" glyph-name="系统设置" d="M353.233 793.193v83.458c0 46.032 37.941 83.349 84.743 83.349h96.849c46.802 0 84.743-37.317 84.743-83.349v-83.458c37.764-14.101 72.905-34.126 104.12-59.21l73.56 41.771c40.532 23.016 92.36 9.357 115.761-30.508l48.424-82.494c23.401-39.865 9.514-90.84-31.018-113.857l-73.523-41.75c3.184-19.43 4.798-39.191 4.798-59.146s-1.613-39.716-4.798-59.146l73.523-41.75c40.532-23.016 54.419-73.991 31.018-113.857l-48.424-82.494c-23.401-39.865-75.229-53.524-115.761-30.508l-73.56 41.771c-31.215-25.083-66.356-45.109-104.12-59.21v-83.458c0-46.032-37.941-83.349-84.743-83.349h-96.849c-46.802 0-84.743 37.317-84.743 83.349v83.458c-37.764 14.101-72.905 34.126-104.12 59.21l-73.56-41.771c-40.532-23.016-92.36-9.357-115.761 30.508l-48.424 82.494c-23.401 39.865-9.514 90.84 31.018 113.857l73.523 41.75c-3.184 19.43-4.798 39.191-4.798 59.146s1.613 39.716 4.798 59.146l-73.523 41.75c-40.532 23.016-54.419 73.991-31.018 113.857l48.424 82.494c23.401 39.865 75.229 53.524 115.761 30.508l73.56-41.771c31.215 25.083 66.356 45.109 104.12 59.21zM278.461 664.293l-19.669-18.3-119.557 67.891c-5.79 3.288-13.194 1.337-16.537-4.358l-48.424-82.494c-3.343-5.695-1.359-12.977 4.431-16.265l119.465-67.839-6.247-25.884c-5.413-22.426-8.174-45.544-8.174-69.044s2.762-46.618 8.174-69.044l6.247-25.884-119.465-67.839c-5.79-3.288-7.774-10.57-4.431-16.265l48.424-82.494c3.343-5.695 10.747-7.646 16.537-4.358l119.557 67.891 19.669-18.3c34.416-32.020 75.975-55.748 121.45-69.059l25.959-7.599v-135.7c0-6.576 5.42-11.907 12.106-11.907h96.849c6.686 0 12.106 5.331 12.106 11.907v135.7l25.959 7.599c45.475 13.311 87.034 37.039 121.45 69.059l19.669 18.3 119.557-67.891c5.79-3.288 13.194-1.337 16.537 4.358l48.424 82.494c3.343 5.695 1.359 12.977-4.431 16.265l-119.465 67.839 6.247 25.884c5.413 22.426 8.174 45.544 8.174 69.044s-2.762 46.618-8.174 69.044l-6.247 25.884 119.465 67.839c5.79 3.288 7.774 10.57 4.431 16.265l-48.424 82.494c-3.343 5.695-10.747 7.646-16.537 4.358l-119.557-67.891-19.669 18.3c-34.416 32.020-75.975 55.748-121.45 69.059l-25.959 7.599v135.7c0 6.576-5.42 11.907-12.106 11.907h-96.849c-6.686 0-12.106-5.331-12.106-11.907v-135.7l-25.959-7.599c-45.475-13.311-87.034-37.039-121.45-69.059zM486.4 269.395c-100.29 0-181.592 79.964-181.592 178.605s81.301 178.605 181.592 178.605c100.29 0 181.592-79.964 181.592-178.605s-81.301-178.605-181.592-178.605zM486.4 340.837c60.174 0 108.955 47.978 108.955 107.163s-48.781 107.163-108.955 107.163c-60.174 0-108.955-47.978-108.955-107.163s48.781-107.163 108.955-107.163z" />
<glyph unicode="&#xe920;" glyph-name="远程资源库" d="M537.6 86.232h316.82c21.208 0 38.4-17.192 38.4-38.4s-17.192-38.4-38.4-38.4h-649.62c-21.208 0-38.4 17.192-38.4 38.4s17.192 38.4 38.4 38.4h256v153.6h-307.2c-77.333 0-140.8 60.126-140.8 135.411v436.547c0 75.284 63.467 135.411 140.8 135.411h716.8c77.297 0 140.8-60.14 140.8-135.411v-436.547c0-75.717-66.486-135.411-140.8-135.411h-332.8v-153.6zM870.4 316.632c33.633 0 64 27.265 64 58.611v436.547c0 31.893-28.212 58.611-64 58.611h-716.8c-35.819 0-64-26.698-64-58.611v-436.547c0-31.912 28.181-58.611 64-58.611h716.8zM153.6 652.8l153.6 102.4v-204.8l-153.6 102.4zM870.4 550.4l-153.6-102.4v204.8l153.6-102.4zM307.2 704h153.6v-102.4h-153.6v102.4zM716.8 499.2h-153.6v102.4h153.6v-102.4z" />
<glyph unicode="&#xe921;" glyph-name="主数据" d="M522.523 381.743l-520.383 266.962 518.010 260.095 503.585-269.24-501.213-257.817zM515.007 272.086l448.484 234.797c20.3 10.628 45.301 2.65 55.842-17.819s2.628-45.678-17.672-56.306l-485.346-254.096-491.015 239.58c-20.59 10.046-29.204 35.020-19.24 55.781s34.731 29.447 55.321 19.401l453.627-221.337zM59.467 303.461l457.762-223.371 441.785 218.069c20.544 10.141 45.351 1.569 55.408-19.146s1.556-45.728-18.988-55.869l-477.996-235.943-494.052 241.080c-20.589 10.047-29.203 35.021-19.239 55.782s34.732 29.446 55.321 19.399z" />
<glyph unicode="&#xe922;" glyph-name="组织权限管理" d="M545.353 503.296v-110.592h295.721c24.235 0 43.881-16.505 43.881-36.864v-110.592h36.645c28.277 0 51.2-22.923 51.2-51.2v-155.648c0-28.277-22.923-51.2-51.2-51.2h-117.029c-28.277 0-51.2 22.923-51.2 51.2v155.648c0 28.277 22.923 51.2 51.2 51.2h18.95v86.016h-278.168v-86.016h-55.296v86.016h-289.652v-86.016h19.023c28.277 0 51.2-22.923 51.2-51.2v-155.648c0-28.277-22.923-51.2-51.2-51.2h-117.029c-28.277 0-51.2 22.923-51.2 51.2v155.648c0 28.277 22.923 51.2 51.2 51.2v0h36.571v110.592c0 20.359 19.646 36.864 43.881 36.864h307.204v110.592h-78.263c-28.277 0-51.2 22.923-51.2 51.2v303.104c0 28.277 22.923 51.2 51.2 51.2h200.346c28.277 0 51.2-22.923 51.2-51.2v-303.104c0-28.277-22.923-51.2-51.2-51.2h-66.787zM453.486 245.248h117.029c28.277 0 51.2-22.923 51.2-51.2v-155.648c0-28.277-22.923-51.2-51.2-51.2h-117.029c-28.277 0-51.2 22.923-51.2 51.2v155.648c0 28.277 22.923 51.2 51.2 51.2z" />
<glyph unicode="&#xe923;" glyph-name="API管理" d="M853.332 277.337h-85.334c-23.087 5.367-34.63 19.384-34.63 42.049s11.543 37.094 34.63 43.285h85.334c47.123 0 85.334 38.206 85.334 85.334s-38.206 85.334-85.334 85.334h-341.332v85.329h341.332c94.25 0 170.668-76.418 170.668-170.668s-76.418-170.663-170.668-170.663zM511.995 874.666c-47.128 0-85.334-38.206-85.334-85.334v-341.332h-85.329v341.332c0 94.25 76.418 170.668 170.668 170.668s170.668-76.418 170.668-170.668v-85.334c-2.766-23.358-16.271-35.036-40.516-35.036s-39.185 11.679-44.818 35.036l-0.005 85.334c0 47.123-38.206 85.334-85.334 85.334zM170.668 362.666h341.332v-85.334h-341.332c-94.25 0.005-170.668 76.418-170.668 170.668s76.418 170.668 170.668 170.668h85.334c23.581-4.576 35.372-18.666 35.372-42.27s-11.791-37.959-35.372-43.064h-85.334c-47.128 0-85.334-38.206-85.334-85.334 0-47.123 38.206-85.334 85.334-85.334zM512 21.334c47.128 0 85.334 38.206 85.334 85.334v341.332h85.334v-341.332c0-94.25-76.418-170.668-170.668-170.668s-170.668 76.418-170.668 170.668v85.334c7.161 23.784 22.028 35.677 44.601 35.677s36.151-11.892 40.733-35.677v-85.334c0-47.123 38.206-85.334 85.334-85.334z" />
<glyph unicode="&#xe924;" glyph-name="DEVOps" d="M587.415 216.613c-0.062-12.344-0.027-10.944 0.089-1.568 0.576-79.16 76.316-144.656 155.653-145.081 79.878-0.425 144.975 63.98 145.4 143.849 0.425 79.878-63.918 155.688-143.796 156.114-43.82 0.23-155.821 0.399-155.821 0.399s-1.081-123.618-1.436-155.281c-0.009 0.523-0.089 1.037-0.089 1.568zM953.866 215.727c-0.611-115.696-98.726-212.766-214.423-212.145-115.687 0.62-216.558 98.753-215.947 214.44 0.284 52.23 0.744 215.699 0.744 215.699s154.031 0.567 217.506 0.23c115.687-0.62 212.739-102.528 212.119-218.224zM420.109 697.334c0.009-0.532 0.089-1.046 0.089-1.577 0.071 12.353 0.027 10.944-0.089 1.577-0.585 79.16-76.316 144.647-155.653 145.072-79.878 0.425-144.966-63.98-145.391-143.849-0.434-79.869 63.918-155.68 143.787-156.105 43.82-0.239 155.821-0.408 155.821-0.408s1.081 123.627 1.436 155.29zM53.746 696.643c0.611 115.696 98.726 212.766 214.423 212.154 115.696-0.62 216.558-98.753 215.947-214.449-0.284-52.221-0.744-215.699-0.744-215.699s-154.031-0.567-217.506-0.23c-115.696 0.62-212.739 102.537-212.119 218.224zM417.539 215.949c-0.018 31.662 0.222 155.29 0.222 155.29s-112.001 1.028-155.812 1.258c-79.878 0.425-145.028-74.685-145.453-154.554-0.425-79.878 63.98-144.975 143.849-145.4 79.337-0.416 155.768 64.255 157.195 143.406 0.009-9.367 0.035-10.776 0.106 1.577 0-0.541-0.089-1.055-0.106-1.577zM263.348 6.125c-115.696 0.62-212.766 98.726-212.145 214.423 0.611 115.696 98.744 216.567 214.44 215.947 63.475-0.337 217.489-2.552 217.489-2.552s-1.285-163.469-1.56-215.69c-0.62-115.696-102.528-212.748-218.224-212.128zM747.268 839.828c-79.337 0.425-155.768-64.255-157.195-143.397-0.009 9.367-0.035 10.776-0.106-1.577 0.009 0.532 0.089 1.046 0.106 1.577 0.018-31.671-0.222-155.298-0.222-155.298s112.001-1.019 155.812-1.258c79.878-0.425 145.028 74.694 145.453 154.563s-63.98 144.966-143.849 145.391zM741.969 475.876c-63.466 0.346-217.489 2.561-217.489 2.561s1.285 163.46 1.56 215.69c0.62 115.696 102.51 208.937 218.207 208.326 115.696-0.62 208.982-94.916 208.361-210.603-0.611-115.696-94.943-216.585-210.639-215.973z" />
</font>
</defs>
</svg>
